<svg width="617.5px" height="122.6px" xmlns="http://www.w3.org/2000/svg" viewBox="-58.759991455078136 13.680004882812504 617.5199829101563 122.63999023437499" style="background: none" preserveAspectRatio="xMidYMid"><defs><filter id="editing-extrude-glow"><feFlood flood-color="#333333" result="flood-1"></feFlood><feMorphology operator="erode" radius="1" in="SourceAlpha" result="erode"></feMorphology><feComposite operator="in" in="flood-1" in2="erode" result="comp1"></feComposite><feConvolveMatrix order="3,3" divisor="1" in="comp1" result="convolve" kernelMatrix="0 0 0 1 1 1 0 0 0"></feConvolveMatrix><feOffset dx="-3" dy="0" in="convolve" result="extrude"></feOffset><feComposite operator="in" in="flood-1" in2="extrude" result="comp-extrude"></feComposite><feFlood flood-color="#000000" result="flood-2"></feFlood><feComposite operator="in" in="flood-2" in2="SourceAlpha" result="comp2"></feComposite><feMorphology operator="dilate" radius="1" in="comp2" result="dilate"></feMorphology><feOffset dx="-4.5" dy="0" in="dilate" result="offset"></feOffset><feGaussianBlur in="offset" stdDeviation="5.8" result="blur"></feGaussianBlur><feComponentTransfer in="blur" result="shadow"><feFuncA type="linear" slope="0.8" intercept="-0.2"></feFuncA></feComponentTransfer><feMerge><feMergeNode in="shadow"></feMergeNode><feMergeNode in="comp-extrude"></feMergeNode><feMergeNode in="SourceGraphic"></feMergeNode></feMerge></filter></defs><g filter="url(#editing-extrude-glow)"><g transform="matrix(1.4,0,0,2,-34.8,-172.7)"><path d="M 3.6 141.6 L -10.4 141.6 L -2.3 99.3 L 11.8 99.3 L 3.6 141.6 Z M 59.3 142.8 L 59.3 142.8 L 59.3 142.8 Q 51.6 142.8 51.6 136.8 L 51.6 136.8 L 51.6 136.8 Q 51.6 134.2 52.7 129.1 L 52.7 129.1 L 52.7 129.1 Q 53.8 124 54.2 122 L 54.2 122 L 54.2 122 Q 55.1 117.3 55.1 115.8 L 55.1 115.8 L 55.1 115.8 Q 55.1 112.6 52.6 112.6 L 52.6 112.6 L 52.6 112.6 Q 51 112.6 49.5 114.8 L 49.5 114.8 L 49.5 114.8 Q 48 117 47.3 121.4 L 47.3 121.4 L 43.3 141.6 L 30.8 142.8 L 34.3 125.4 L 34.3 125.4 Q 34.8 122.6 35.4 119.3 L 35.4 119.3 L 35.4 119.3 Q 35.9 116 35.9 115.5 L 35.9 115.5 L 35.9 115.5 Q 35.9 112.6 33.7 112.6 L 33.7 112.6 L 33.7 112.6 Q 32.2 112.6 30.6 114.7 L 30.6 114.7 L 30.6 114.7 Q 29 116.9 28.1 121.4 L 28.1 121.4 L 24.2 141.6 L 11.6 142.8 L 18.3 108.9 L 28.8 107.6 L 27.7 114.1 L 27.7 114.1 Q 29.3 110.7 32.4 109.1 L 32.4 109.1 L 32.4 109.1 Q 35.5 107.6 40.3 107.6 L 40.3 107.6 L 40.3 107.6 Q 43 107.6 44.8 109 L 44.8 109 L 44.8 109 Q 46.6 110.3 47.2 112.5 L 47.2 112.5 L 47.2 112.5 Q 48.3 110.3 51.1 109 L 51.1 109 L 51.1 109 Q 53.9 107.6 57.3 107.6 L 57.3 107.6 L 57.3 107.6 Q 60.7 107.6 62.4 108.4 L 62.4 108.4 L 62.4 108.4 Q 64.1 109.1 65.1 110.3 L 65.1 110.3 L 65.1 110.3 Q 66.8 112.6 66.8 116.7 L 66.8 116.7 L 66.8 116.7 Q 66.8 120.7 65.1 129.1 L 65.1 129.1 L 65.1 129.1 Q 64.2 133.2 64.2 134.7 L 64.2 134.7 L 64.2 134.7 Q 64.2 136.2 65.1 137.1 L 65.1 137.1 L 65.1 137.1 Q 66 138 67.2 138.1 L 67.2 138.1 L 67.2 138.1 Q 66.6 140.3 64.4 141.6 L 64.4 141.6 L 64.4 141.6 Q 62.2 142.8 59.3 142.8 Z M 74.9 139.6 L 74.9 139.6 L 74.9 139.6 Q 73.4 138 72.8 135.4 L 72.8 135.4 L 72.8 135.4 Q 72.1 132.7 72.1 128.4 L 72.1 128.4 L 72.1 128.4 Q 72.1 124.2 73.6 120.3 L 73.6 120.3 L 73.6 120.3 Q 75 116.3 77.7 113.5 L 77.7 113.5 L 77.7 113.5 Q 83.2 107.6 92.3 107.6 L 92.3 107.6 L 92.3 107.6 Q 95.6 107.6 98 108.7 L 98 108.7 L 108.9 107.6 L 104.2 132.6 L 104.2 132.6 Q 104 133.4 104 134.8 L 104 134.8 L 104 134.8 Q 104 136.2 104.8 137.1 L 104.8 137.1 L 104.8 137.1 Q 105.7 138 107 138.1 L 107 138.1 L 107 138.1 Q 106.3 140.3 104 141.6 L 104 141.6 L 104 141.6 Q 101.7 142.8 99 142.8 L 99 142.8 L 99 142.8 Q 96.4 142.8 94.7 141.9 L 94.7 141.9 L 94.7 141.9 Q 92.9 140.9 92.4 139.2 L 92.4 139.2 L 92.4 139.2 Q 91.4 140.8 89.2 141.8 L 89.2 141.8 L 89.2 141.8 Q 87 142.8 84.1 142.8 L 84.1 142.8 L 84.1 142.8 Q 81.2 142.8 78.8 142.1 L 78.8 142.1 L 78.8 142.1 Q 76.4 141.3 74.9 139.6 Z M 88.4 113.7 L 88.4 113.7 L 88.4 113.7 Q 87.7 114.8 87.1 116.8 L 87.1 116.8 L 87.1 116.8 Q 86.4 118.7 85.4 123.9 L 85.4 123.9 L 85.4 123.9 Q 84.3 129.1 84.3 132.9 L 84.3 132.9 L 84.3 132.9 Q 84.3 136.6 84.9 137.7 L 84.9 137.7 L 84.9 137.7 Q 85.5 138.7 86.5 138.7 L 86.5 138.7 L 86.5 138.7 Q 88.5 138.7 90 136.8 L 90 136.8 L 90 136.8 Q 91.6 134.8 92.1 131.4 L 92.1 131.4 L 95.5 112.6 L 95.5 112.6 Q 94.2 111.5 92.6 111.5 L 92.6 111.5 L 92.6 111.5 Q 91 111.5 90.1 112 L 90.1 112 L 90.1 112 Q 89.2 112.5 88.4 113.7 Z M 116.6 114.8 L 116.6 114.8 L 116.6 114.8 Q 118.8 111.7 122.1 109.7 L 122.1 109.7 L 122.1 109.7 Q 125.4 107.6 129.4 107.6 L 129.4 107.6 L 129.4 107.6 Q 133.5 107.6 135.4 108.9 L 135.4 108.9 L 147.9 107.6 L 143.6 132.2 L 143.6 132.2 Q 141.3 144.8 136.6 149.7 L 136.6 149.7 L 136.6 149.7 Q 132.1 154.4 123.2 154.4 L 123.2 154.4 L 123.2 154.4 Q 116.5 154.4 112.7 152.3 L 112.7 152.3 L 112.7 152.3 Q 108.8 150.1 108.8 146.6 L 108.8 146.6 L 108.8 146.6 Q 108.8 144 110.8 142.5 L 110.8 142.5 L 110.8 142.5 Q 112.8 141 115.9 141 L 115.9 141 L 115.9 141 Q 118.6 141 120.6 142.2 L 120.6 142.2 L 120.6 142.2 Q 121.8 142.8 122.4 143.7 L 122.4 143.7 L 122.4 143.7 Q 120.9 145 120.9 147.1 L 120.9 147.1 L 120.9 147.1 Q 120.9 149.9 123.5 149.9 L 123.5 149.9 L 123.5 149.9 Q 127.8 149.9 130.2 139.8 L 130.2 139.8 L 130.2 139.8 Q 130.9 137 131.5 134.3 L 131.5 134.3 L 131.5 134.3 Q 128.6 137.8 122.1 137.8 L 122.1 137.8 L 122.1 137.8 Q 117.5 137.8 114.9 135.6 L 114.9 135.6 L 114.9 135.6 Q 112.3 133.4 112.3 128.3 L 112.3 128.3 L 112.3 128.3 Q 112.3 125.1 113.4 121.5 L 113.4 121.5 L 113.4 121.5 Q 114.5 117.9 116.6 114.8 Z M 125 128.5 L 125 128.5 L 125 128.5 Q 125 132.9 127.2 132.9 L 127.2 132.9 L 127.2 132.9 Q 128.7 132.9 130.2 131.2 L 130.2 131.2 L 130.2 131.2 Q 131.4 129.9 131.8 127.9 L 131.8 127.9 L 135.1 111.4 L 135.1 111.4 Q 134.8 111.4 134.4 111.2 L 134.4 111.2 L 134.4 111.2 Q 133.8 111 133 111 L 133 111 L 133 111 Q 129.1 111 126.8 117.4 L 126.8 117.4 L 126.8 117.4 Q 125 122.4 125 128.5 Z M 176.4 130.7 L 176.4 130.7 L 176.4 130.7 Q 178 131.8 178 134.2 L 178 134.2 L 178 134.2 Q 178 136.6 176.7 138.2 L 176.7 138.2 L 176.7 138.2 Q 175.5 139.7 173.5 140.7 L 173.5 140.7 L 173.5 140.7 Q 169.4 142.8 165 142.8 L 165 142.8 L 165 142.8 Q 160.6 142.8 158 141.9 L 158 141.9 L 158 141.9 Q 155.4 140.9 153.7 139.1 L 153.7 139.1 L 153.7 139.1 Q 150.3 135.7 150.3 129.5 L 150.3 129.5 L 150.3 129.5 Q 150.3 119.9 155.6 114 L 155.6 114 L 155.6 114 Q 161.2 107.6 171 107.6 L 171 107.6 L 171 107.6 Q 177.1 107.6 180.1 110.2 L 180.1 110.2 L 180.1 110.2 Q 182.3 112.1 182.3 115.3 L 182.3 115.3 L 182.3 115.3 Q 182.3 126.5 162.8 126.5 L 162.8 126.5 L 162.8 126.5 Q 162.6 128.2 162.6 129.6 L 162.6 129.6 L 162.6 129.6 Q 162.6 132.5 163.9 133.7 L 163.9 133.7 L 163.9 133.7 Q 165.2 134.8 167.6 134.8 L 167.6 134.8 L 167.6 134.8 Q 170.1 134.8 172.7 133.7 L 172.7 133.7 L 172.7 133.7 Q 175.3 132.5 176.4 130.7 Z M 163.3 123.8 L 163.3 123.8 L 163.3 123.8 Q 167.8 123.8 170.5 121 L 170.5 121 L 170.5 121 Q 173.1 118.3 173.1 114 L 173.1 114 L 173.1 114 Q 173.1 112.5 172.5 111.7 L 172.5 111.7 L 172.5 111.7 Q 172 110.9 170.9 110.9 L 170.9 110.9 L 170.9 110.9 Q 169.8 110.9 168.9 111.3 L 168.9 111.3 L 168.9 111.3 Q 168 111.7 167 113.1 L 167 113.1 L 167 113.1 Q 164.6 116.3 163.3 123.8 Z M 223.6 121 L 236.5 119.8 L 236.5 119.8 Q 231.9 129.9 231.9 141.6 L 231.9 141.6 L 231.9 141.6 Q 230.2 142.8 227.6 142.8 L 227.6 142.8 L 227.6 142.8 Q 225.1 142.8 223.5 141.7 L 223.5 141.7 L 223.5 141.7 Q 221.9 140.5 221.6 139.3 L 221.6 139.3 L 221.6 139.3 Q 220 140.9 217.4 141.9 L 217.4 141.9 L 217.4 141.9 Q 214.8 142.8 212.1 142.8 L 212.1 142.8 L 212.1 142.8 Q 209.3 142.8 206.9 141.9 L 206.9 141.9 L 206.9 141.9 Q 204.5 141.1 202.7 139.1 L 202.7 139.1 L 202.7 139.1 Q 198.6 134.7 198.6 126.5 L 198.6 126.5 L 198.6 126.5 Q 198.6 113.7 205.4 106 L 205.4 106 L 205.4 106 Q 212.4 98 224.9 98 L 224.9 98 L 224.9 98 Q 233.6 98 236.6 102.5 L 236.6 102.5 L 236.6 102.5 Q 237.6 103.9 237.6 105.6 L 237.6 105.6 L 237.6 105.6 Q 237.6 107.3 236.9 108.8 L 236.9 108.8 L 236.9 108.8 Q 236.1 110.2 235 111.4 L 235 111.4 L 235 111.4 Q 232.2 113.9 228.8 113.9 L 228.8 113.9 L 228.8 113.9 Q 227.5 113.9 226.2 113.5 L 226.2 113.5 L 226.2 113.5 Q 226.5 111.5 226.5 109.3 L 226.5 109.3 L 226.5 109.3 Q 226.5 107.1 226.3 106 L 226.3 106 L 226.3 106 Q 226.1 105 225.8 104.2 L 225.8 104.2 L 225.8 104.2 Q 224.9 102.5 223.1 102.5 L 223.1 102.5 L 223.1 102.5 Q 221.3 102.5 219.3 104.4 L 219.3 104.4 L 219.3 104.4 Q 217.2 106.4 215.6 109.6 L 215.6 109.6 L 215.6 109.6 Q 212.1 116.7 212.1 125.4 L 212.1 125.4 L 212.1 125.4 Q 212.1 129.3 213.7 132.2 L 213.7 132.2 L 213.7 132.2 Q 215.3 135.2 218.3 135.2 L 218.3 135.2 L 218.3 135.2 Q 219.3 135.2 220.2 134.7 L 220.2 134.7 L 220.2 134.7 Q 221.2 134.2 221.5 133.8 L 221.5 133.8 L 223.6 121 Z M 242.4 139.6 L 242.4 139.6 L 242.4 139.6 Q 240.9 138 240.3 135.4 L 240.3 135.4 L 240.3 135.4 Q 239.6 132.7 239.6 128.4 L 239.6 128.4 L 239.6 128.4 Q 239.6 124.2 241.1 120.3 L 241.1 120.3 L 241.1 120.3 Q 242.5 116.3 245.2 113.5 L 245.2 113.5 L 245.2 113.5 Q 250.7 107.6 259.8 107.6 L 259.8 107.6 L 259.8 107.6 Q 263.1 107.6 265.4 108.7 L 265.4 108.7 L 276.4 107.6 L 271.6 132.6 L 271.6 132.6 Q 271.5 133.4 271.5 134.8 L 271.5 134.8 L 271.5 134.8 Q 271.5 136.2 272.3 137.1 L 272.3 137.1 L 272.3 137.1 Q 273.2 138 274.5 138.1 L 274.5 138.1 L 274.5 138.1 Q 273.8 140.3 271.5 141.6 L 271.5 141.6 L 271.5 141.6 Q 269.2 142.8 266.5 142.8 L 266.5 142.8 L 266.5 142.8 Q 263.9 142.8 262.1 141.9 L 262.1 141.9 L 262.1 141.9 Q 260.4 140.9 259.9 139.2 L 259.9 139.2 L 259.9 139.2 Q 258.8 140.8 256.7 141.8 L 256.7 141.8 L 256.7 141.8 Q 254.5 142.8 251.6 142.8 L 251.6 142.8 L 251.6 142.8 Q 248.7 142.8 246.3 142.1 L 246.3 142.1 L 246.3 142.1 Q 243.9 141.3 242.4 139.6 Z M 255.9 113.7 L 255.9 113.7 L 255.9 113.7 Q 255.2 114.8 254.6 116.8 L 254.6 116.8 L 254.6 116.8 Q 253.9 118.7 252.9 123.9 L 252.9 123.9 L 252.9 123.9 Q 251.8 129.1 251.8 132.9 L 251.8 132.9 L 251.8 132.9 Q 251.8 136.6 252.4 137.7 L 252.4 137.7 L 252.4 137.7 Q 253 138.7 254 138.7 L 254 138.7 L 254 138.7 Q 256 138.7 257.5 136.8 L 257.5 136.8 L 257.5 136.8 Q 259 134.8 259.6 131.4 L 259.6 131.4 L 263 112.6 L 263 112.6 Q 261.7 111.5 260.1 111.5 L 260.1 111.5 L 260.1 111.5 Q 258.5 111.5 257.6 112 L 257.6 112 L 257.6 112 Q 256.7 112.5 255.9 113.7 Z M 295.1 138 L 295.1 138 L 295.1 138 Q 293.2 142.8 286.8 142.8 L 286.8 142.8 L 286.8 142.8 Q 283.6 142.8 281.6 140.6 L 281.6 140.6 L 281.6 140.6 Q 279.9 138.7 279.9 136.6 L 279.9 136.6 L 279.9 136.6 Q 279.9 131.8 282.1 121.3 L 282.1 121.3 L 286.8 96.8 L 299.8 95.5 L 293.6 127.9 L 293.6 127.9 Q 292.5 132.6 292.5 134.3 L 292.5 134.3 L 292.5 134.3 Q 292.5 137.9 295.1 138 Z M 315.9 138 L 315.9 138 L 315.9 138 Q 313.9 142.8 307.6 142.8 L 307.6 142.8 L 307.6 142.8 Q 304.4 142.8 302.3 140.6 L 302.3 140.6 L 302.3 140.6 Q 300.6 138.7 300.6 136.6 L 300.6 136.6 L 300.6 136.6 Q 300.6 131.8 302.9 121.3 L 302.9 121.3 L 307.6 96.8 L 320.5 95.5 L 314.3 127.9 L 314.3 127.9 Q 313.2 132.6 313.2 134.3 L 313.2 134.3 L 313.2 134.3 Q 313.2 137.9 315.9 138 Z M 347.2 130.7 L 347.2 130.7 L 347.2 130.7 Q 348.8 131.8 348.8 134.2 L 348.8 134.2 L 348.8 134.2 Q 348.8 136.6 347.6 138.2 L 347.6 138.2 L 347.6 138.2 Q 346.4 139.7 344.4 140.7 L 344.4 140.7 L 344.4 140.7 Q 340.3 142.8 335.9 142.8 L 335.9 142.8 L 335.9 142.8 Q 331.5 142.8 328.9 141.9 L 328.9 141.9 L 328.9 141.9 Q 326.3 140.9 324.6 139.1 L 324.6 139.1 L 324.6 139.1 Q 321.2 135.7 321.2 129.5 L 321.2 129.5 L 321.2 129.5 Q 321.2 119.9 326.4 114 L 326.4 114 L 326.4 114 Q 332.1 107.6 341.9 107.6 L 341.9 107.6 L 341.9 107.6 Q 347.9 107.6 350.9 110.2 L 350.9 110.2 L 350.9 110.2 Q 353.2 112.1 353.2 115.3 L 353.2 115.3 L 353.2 115.3 Q 353.2 126.5 333.7 126.5 L 333.7 126.5 L 333.7 126.5 Q 333.5 128.2 333.5 129.6 L 333.5 129.6 L 333.5 129.6 Q 333.5 132.5 334.8 133.7 L 334.8 133.7 L 334.8 133.7 Q 336.1 134.8 338.5 134.8 L 338.5 134.8 L 338.5 134.8 Q 341 134.8 343.6 133.7 L 343.6 133.7 L 343.6 133.7 Q 346.1 132.5 347.2 130.7 Z M 334.2 123.8 L 334.2 123.8 L 334.2 123.8 Q 338.7 123.8 341.3 121 L 341.3 121 L 341.3 121 Q 344 118.3 344 114 L 344 114 L 344 114 Q 344 112.5 343.4 111.7 L 343.4 111.7 L 343.4 111.7 Q 342.9 110.9 341.8 110.9 L 341.8 110.9 L 341.8 110.9 Q 340.7 110.9 339.8 111.3 L 339.8 111.3 L 339.8 111.3 Q 338.8 111.7 337.9 113.1 L 337.9 113.1 L 337.9 113.1 Q 335.5 116.3 334.2 123.8 Z M 375.4 123.6 L 375.4 123.6 L 375.4 123.6 Q 377.7 119.5 377.7 115.3 L 377.7 115.3 L 377.7 115.3 Q 377.7 112.6 375.7 112.6 L 375.7 112.6 L 375.7 112.6 Q 374.2 112.6 372.6 115.2 L 372.6 115.2 L 372.6 115.2 Q 370.9 117.8 370.4 121.2 L 370.4 121.2 L 367.1 141.6 L 353.8 142.8 L 360.4 108.9 L 370.9 107.6 L 369.8 114.1 L 369.8 114.1 Q 372.9 107.6 379.9 107.6 L 379.9 107.6 L 379.9 107.6 Q 383.6 107.6 385.7 109.6 L 385.7 109.6 L 385.7 109.6 Q 387.7 111.5 387.7 115.4 L 387.7 115.4 L 387.7 115.4 Q 387.7 119.4 385.1 121.9 L 385.1 121.9 L 385.1 121.9 Q 382.5 124.3 378.1 124.3 L 378.1 124.3 L 378.1 124.3 Q 376.2 124.3 375.4 123.6 Z M 409.1 134.3 L 409.1 134.3 L 409.1 134.3 Q 405.7 137.8 399.6 137.8 L 399.6 137.8 L 399.6 137.8 Q 392 137.8 390.4 132.2 L 390.4 132.2 L 390.4 132.2 Q 389.9 130.6 389.9 128.7 L 389.9 128.7 L 389.9 128.7 Q 389.9 126.8 390.3 124.9 L 390.3 124.9 L 393.3 108.9 L 406.3 107.6 L 402.8 126.3 L 402.8 126.3 Q 402.7 127.1 402.5 128 L 402.5 128 L 402.5 128 Q 402.3 128.9 402.3 129.8 L 402.3 129.8 L 402.3 129.8 Q 402.3 130.7 402.6 131.4 L 402.6 131.4 L 402.6 131.4 Q 402.9 132 403.4 132.3 L 403.4 132.3 L 403.4 132.3 Q 404.1 132.9 405.5 132.9 L 405.5 132.9 L 405.5 132.9 Q 406.9 132.9 408.1 131.2 L 408.1 131.2 L 408.1 131.2 Q 409.2 129.5 409.8 126.7 L 409.8 126.7 L 413.3 108.9 L 426 107.6 L 421.2 132.8 L 421.2 132.8 Q 418.8 145.1 413.9 149.9 L 413.9 149.9 L 413.9 149.9 Q 411.4 152.4 408.2 153.4 L 408.2 153.4 L 408.2 153.4 Q 405 154.4 400.8 154.4 L 400.8 154.4 L 400.8 154.4 Q 394.1 154.4 390.2 152.3 L 390.2 152.3 L 390.2 152.3 Q 386.4 150.2 386.4 146.7 L 386.4 146.7 L 386.4 146.7 Q 386.4 144.1 388.4 142.6 L 388.4 142.6 L 388.4 142.6 Q 390.4 141.1 393.4 141.1 L 393.4 141.1 L 393.4 141.1 Q 396.1 141.1 398.2 142.2 L 398.2 142.2 L 398.2 142.2 Q 399.4 142.9 400 143.8 L 400 143.8 L 400 143.8 Q 398.5 145.1 398.5 147.2 L 398.5 147.2 L 398.5 147.2 Q 398.5 150 401.1 150 L 401.1 150 L 401.1 150 Q 405.3 150 407.7 140.3 L 407.7 140.3 L 407.7 140.3 Q 408.4 137.4 409.1 134.3 Z" fill="#eb6c6c"></path></g></g><style>text {
  font-size: 64px;
  font-family: Arial Black;
  dominant-baseline: central;
  text-anchor: middle;
}</style></svg>